PathFileType	4	(X/Y/Z)	C:/Users/beibeiliu/ov580/test_trc/User1\sequence.3_training_dense_right.trc
DataRate	CameraRate	NumFrames	NumMarkers	Units	OrigDataRate	OrigDataStartFrame	OrigNumFrames
120	120	25	19	mm	120	1	64
Frame#	Time	ThumbCMC			ThumbMCP			ThumbIP			ThumbTip			IndexMCP			IndexPIP			IndexTip			MiddleMCP			MiddlePIP			MiddleTip			RingMCP			RingPIP			RingTip			PinkyMCP			PinkyPIP			PinkyTip			BackHand1			BackHand2			BackHand3	
		X0	Y0	Z0	X1	Y1	Z1	X2	Y2	Z2	X3	Y3	Z3	X4	Y4	Z4	X5	Y5	Z5	X6	Y6	Z6	X7	Y7	Z7	X8	Y8	Z8	X9	Y9	Z9	X10	Y10	Z10	X11	Y11	Z11	X12	Y12	Z12	X13	Y13	Z13	X14	Y14	Z14	X15	Y15	Z15	X16	Y16	Z16	X17	Y17	Z17	X18	Y18	Z18	
0	0	130.175	74.0371	99.221	104.803	67.7218	67.1739	100.746	63.5326	37.415	101.336	53.6587	13.4512	160.334	101.111	24.0414	143.919	84.2127	-2.73308	121.325	65.3034	8.39922	181.225	84.3564	15.0887	157.612	70.519	-8.54418	136.08	46.5314	15.8545	187.235	61.5908	16.1799	162.343	43.8177	1.07038	146.265	29.4437	28.6426	195.317	42.4362	28.5862	172.3	30.8337	13.0311	150.27	22.7775	34.3844	197.092	62.6523	79.4265	193.574	54.6985	114.882	170.835	82.6283	101.105	
1	0.00833333	129.509	81.0949	100.132	109.369	74.751	71.8268	107.777	74.3923	38.3666	108.663	63.4913	14.0688	153.15	109.757	30.6483	131.788	91.6429	9.35989	121.887	70.7982	37.5714	169.319	93.3161	21.6461	141.088	71.3468	8.30088	134.459	55.041	43.1695	175.009	69.6429	19.225	154.643	46.3952	15.0628	146.437	42.0927	50.4556	186.228	49.4185	31.1853	159.258	35.2576	28.259	153.712	37.5238	60.1837	196.025	69.3263	81.6967	193.07	57.3366	116.218	171.409	89.5885	104.308	
2	0.0166667	127.281	84.0883	107.284	109.905	81.9075	71.2011	107.745	81.4433	39.6845	118.417	69.1085	17.2915	148.915	113.529	32.9265	127.025	95.2645	17.4001	124.012	77.2538	49.3978	159.765	94.3675	20.9916	133.773	72.1577	19.6486	135.891	60.4661	58.3554	169.633	70.3712	23.5595	145.13	51.9357	27.3387	148.589	48.2999	62.1484	178.139	52.9562	31.8067	155.03	37.6692	38.9265	154.504	42.2021	69.7106	195.997	74.1483	80.6666	195.799	60.3157	113.715	172.797	91.7982	107.384	
3	0.025	127.283	88.8421	104.846	106.393	85.1592	72.7231	109.656	83.481	38.4818	121.083	67.6989	16.3235	146.122	115.855	34.8281	123.332	91.1535	24.0507	127.577	80.021	57.0212	161.506	92.5474	22.1934	133.959	68.2258	24.3967	138.451	60.9343	61.0596	164.564	71.5129	24.3103	141.761	49.2907	36.4927	149.74	52.0348	68.3348	176.153	53.2629	34.1794	153.834	39.1686	43.8725	159.503	45.7323	78.6015	195.107	79.2836	81.1035	193.037	60.857	115.049	170.345	97.573	104.423	
4	0.0333333	127.589	90.7486	103.919	108.094	85.3951	72.2114	108.8	83.0882	39.6707	123.018	66.2848	17.7837	146.037	112.812	30.5702	123.969	90.9033	22.3107	128.911	79.7359	57.2102	160.571	95.7261	25.4424	132.916	68.8523	25.6371	135.291	61.1742	60.9298	167.673	71.6865	28.1573	140.454	50.5923	39.0087	151.016	51.6953	71.4871	178.623	50.7913	35.6776	152.408	37.7951	50.0825	162.236	46.1905	79.6135	195.118	76.3636	82.7615	196.855	59.9446	114.88	174.236	92.0399	106.026	
5	0.0416667	128.706	88.8984	102.436	110.625	83.0253	72.1519	109.036	79.463	44.1529	120.612	65.2486	20.2834	145.019	112.324	32.395	127.712	85.6231	23.2995	124.402	81.6943	59.61	162.967	91.8311	24.3396	136.38	66.4663	21.724	134.968	59.3328	58.8951	165.317	69.2918	26.3547	143.573	46.5059	35.6187	148.833	50.4998	67.955	176.878	46.7192	34.1935	153.699	37.5742	46.8252	162.9	44.0863	81.9431	198.411	72.6001	79.1086	195.133	61.1922	112.546	175.081	92.7156	102.33	
6	0.05	130.801	84.3133	102.486	107.76	81.3519	72.1642	106.697	78.6987	39.5931	119.297	61.4763	16.6147	146.778	109.473	31.4617	124.507	86.6067	22.4202	129.027	75.9654	56.6019	161.616	91.7641	23.4687	136.242	66.4463	21.1087	136.707	57.5222	59.2815	169.308	64.501	24.3379	145.686	43.7908	34.8985	151.663	45.7798	67.3437	179.959	48.2249	35.4901	155.998	32.1231	48.1781	164.122	42.5111	80.5389	197.346	73.2896	82.7723	193.9	60.2802	115.026	173.308	91.7701	103.029	
7	0.0583333	128.944	81.5185	106.273	108.346	79.5182	71.9456	107.347	76.7183	41.1098	121.044	60.9907	15.7219	145.59	110.116	30.902	127.118	83.1133	22.4682	126.888	75.7489	57.7034	161.934	87.9386	21.9413	136.461	64.244	21.6791	140.308	55.0907	62.0158	169.409	62.088	24.3526	146.742	41.2578	35.4841	149.902	46.011	67.1963	181.928	47.3767	35.2003	156.49	33.3886	44.1568	161.184	38.6425	79.6118	198.074	75.2067	79.5205	195.047	58.7233	116.815	171.667	91.3414	106.39	
8	0.0666667	132.246	81.3162	101.081	108.225	78.1371	71.9119	108.361	74.9949	43.2546	118.346	59.6957	16.9601	146.919	106.336	28.7777	126.362	83.2321	19.6352	126.732	72.7252	52.3882	163.243	86.1953	21.5519	136.062	60.6936	22.7724	136.423	53.9184	56.2495	170.489	64.6317	25.8315	145.482	42.895	32.8931	152.22	44.323	69.0194	180.454	43.6769	33.5758	155.545	32.5915	46.2538	160.603	34.5671	76.9174	200.879	69.9312	79.0998	197.556	56.369	112.504	173.74	86.7995	105.002	
9	0.075	132.016	81.687	105.173	109.527	79.0068	71.0753	107.336	76.2763	42.839	117.929	59.178	15.9668	151.222	101.477	26.2203	127.2	84.1017	17.8302	127.748	75.1203	54.7856	160.117	82.498	18.465	133.572	58.827	22.6659	133.647	54.1781	57.9953	169.159	57.5717	24.5631	141.245	41.0865	33.5459	147.858	43.7009	67.908	177.383	34.8245	32.8684	151.022	28.1775	46.5682	155.626	38.0765	77.3859	195.799	64.3843	79.3899	196.908	51.1486	109.662	178.733	82.7194	103.842	
10	0.0833333	142.794	87.4849	99.9117	114.814	91.9362	68.9936	107.599	85.7476	40.8803	114.101	62.0966	19.0336	157.276	97.9866	24.681	125.782	82.7246	20.6725	131.141	75.2216	53.8134	160.703	71.0978	16.0546	130.134	57.2275	20.7585	132.82	57.0511	59.7553	159.004	46.0141	21.9056	131.325	39.873	36.7338	142.048	44.7918	69.1602	164.22	24.1272	34.3165	139.061	27.9797	49.376	151.289	39.3067	80.5005	194.863	51.3861	76.6567	194.845	42.3601	110.961	182.524	76.2248	98.3483	
11	0.0916667	153.485	94.248	99.8585	130.328	101.997	69.8743	117.793	97.9605	37.788	110.727	72.2339	19.9199	159.762	92.4635	18.3601	128.077	84.7846	20.9896	138.238	83.5778	55.5746	158.54	66.3346	15.3491	122.576	64.406	24.4922	130.981	67.9227	62.1578	146.995	42.466	22.357	120.349	46.5024	40.5424	138.02	51.9076	71.0996	143.222	26.6242	35.9696	123.71	35.3912	56.3184	142.095	41.2643	81.9465	188.446	36.6593	68.1508	187.456	33.7197	106.438	188.147	72.1503	88.6927	
12	0.1	171.817	95.9955	92.1015	150.487	109.174	63.1727	135.317	107.115	38.3446	117.676	87.665	21.1152	166.104	83.4716	10.6629	135.592	86.8947	19.2547	146.336	87.4531	50.2135	152.346	60.4739	10.1978	123.256	69.8839	27.7391	137.499	70.2577	60.8545	137.099	43.3186	22.6867	115.574	56.8142	45.0297	136.741	59.0996	70.7908	127.871	27.1503	37.7987	117.1	46.9544	56.2165	139.134	47.9487	79.8171	179.912	25.3404	68.264	178.214	25.9733	104.429	194.228	57.8681	86.9213	
13	0.108333	185.961	82.6763	84.312	168.861	103.28	55.844	154.942	100.109	30.7186	132.687	87.6894	16.217	178.913	65.1522	8.89612	149.69	79.5828	13.9869	165.518	79.2556	48.2405	160.564	44.37	10.0059	134.397	66.8027	20.1486	149.763	66.0809	58.9959	139.281	36.5913	20.6544	126.976	60.2874	36.5406	139.602	56.9748	65.973	130.122	21.8093	37.5169	121.55	47.6812	54.8111	142.437	48.0165	75.088	178.389	15.7671	71.0935	178.081	17.6333	103.301	200.876	44.9017	84.7951	
14	0.116667	199.533	73.9576	80.6706	184.65	94.2125	50.2966	172.602	87.8752	23.1802	150.459	69.1738	5.20607	197.954	52.2482	3.42128	170.094	67.2888	9.64873	180.853	70.5422	41.137	180.376	34.7329	6.71571	153.616	54.4705	12.6153	164.594	59.0692	51.9694	156.945	22.7517	17.4557	141.614	50.1326	32.6054	157.918	48.1339	62.117	146.15	12.4334	33.8576	132.897	38.1593	45.0223	156.232	38.6953	73.1307	186.993	2.50924	70.7408	187.795	10.7327	105.654	210.714	33.17	81.6807	
15	0.125	208.537	71.1688	80.4705	192.431	83.1416	47.8032	185.056	78.6398	19.4179	170.006	58.2902	1.29726	221.26	48.3552	5.90758	191.174	61.2766	5.68053	193.881	65.7934	39.0434	203.759	27.2296	4.88404	176.956	48.4187	9.00506	178.388	53.524	45.3836	185.783	16.0999	13.2156	160.163	33.466	22.8148	171.277	37.663	57.2652	170.879	0.591756	28.9362	154.795	24.551	37.9277	171.465	30.7547	67.2412	208.537	-3.92721	73.2403	202.741	1.67811	104.845	224.095	31.9084	88.2883	
16	0.133333	200.43	72.9295	82.7954	183.86	82.4361	45.9796	183.807	70.9946	16.755	178.192	48.1456	-1.34018	227.755	65.3741	8.38115	196.571	64.9797	3.73735	193.633	62.3009	40.9215	224.899	38.8691	7.53612	189.938	44.7949	4.76518	183.491	43.5933	42.8255	212.104	18.5782	15.1716	178.267	28.5497	21.7553	184.564	33.3699	55.3606	201.791	-2.03823	27.6371	176.472	16.5318	36.5324	187.13	25.0843	65.8044	232.868	10.7052	74.8621	221.133	10.3843	108.563	230.195	45.913	91.6444	
17	0.141667	179.128	74.8327	81.6353	163.91	68.4135	44.8064	162.75	60.3103	17.9122	172.336	38.5845	-0.272641	208.785	78.502	8.30573	182.977	60.1418	3.94137	179.295	57.8876	38.075	217.408	53.5765	6.14056	185.484	39.1379	7.953	180.298	40.0272	45.0193	216.316	33.5217	13.0648	185.899	19.5948	24.4017	188.352	28.2404	54.0057	218.016	12.2928	25.5397	190.707	9.34581	37.6658	193.147	17.3547	68.144	242.033	36.3354	74.4059	230.605	30.2203	109.995	218.663	67.9457	91.6852	
18	0.15	153.837	60.0745	86.4329	142.41	46.3563	47.1761	144.574	35.4353	20.9607	165.287	17.6929	1.62054	177.152	74.2683	10.2848	163.655	45.3809	4.6027	163.093	44.0656	43.6943	194.37	54.7459	5.57274	177.289	27.3145	8.79284	176.541	26.6377	50.2855	210.422	33.2409	15.8757	184.963	11.1677	24.5577	186.628	21.1425	59.0373	219.951	19.2366	28.4308	194.362	4.30784	41.8504	195.983	13.5758	69.1248	226.561	55.9697	71.2441	220.341	45.4888	106.196	198.686	71.5985	90.0272	
19	0.158333	138.736	51.7014	87.2659	127.084	31.9636	54.4338	129.63	18.555	31.3133	148.876	0.301033	12.4028	153.895	57.4674	13.2013	140.318	26.763	12.5453	139.419	32.5684	47.0615	175.558	36.4141	7.99395	156.687	10.7408	19.7978	158.986	20.7192	58.5508	186.298	18.5804	18.0123	165.79	0.644878	36.5354	173.453	17.6362	67.2453	202.115	11.7091	32.7446	181.506	-5.13068	48.5081	181.859	16.8719	75.9446	208.784	54.0681	66.0556	210.091	48.3094	102.042	181.422	67.4198	89.4206	
20	0.166667	130.643	58.1173	91.0074	105.962	40.693	68.3906	100.198	22.355	41.6376	119.169	0.974253	29.325	134.993	47.2374	15.7988	112.402	25.5601	24.1187	120.84	37.7542	56.2232	148.639	29.9149	14.9231	125.832	6.63759	30.1976	134.891	26.4359	68.0192	155.805	7.83383	26.2036	135.093	-1.06183	51.8049	150.686	13.5383	75.3973	171.802	-7.25068	41.0387	151.366	-10.9157	62.2412	161.096	13.3575	85.4551	197.34	38.1472	68.3859	200.132	40.7101	103.188	169.014	67.593	82.3227	
21	0.175	132.941	79.5329	91.551	101.666	70.2756	70.5569	84.5933	55.852	49.2513	84.9125	27.3935	41.3675	118.707	56.9583	17.5155	93.647	46.7682	29.9948	114.596	58.7686	62.2649	124.209	31.743	20.189	96.8352	30.1115	43.304	119.466	41.1984	73.7237	123.778	9.60603	35.1037	105.548	13.5536	59.7767	128.396	25.738	82.7043	130.766	-5.24517	51.3635	117.384	6.11102	73.7121	138.65	24.409	90.0911	178.373	30.2154	68.8496	185.874	31.3981	102.723	172.818	62.0766	82.8496	
22	0.183333	151.992	90.0342	87.1053	120.842	98.3773	69.4953	98.8431	89.3322	45.0421	83.2744	64.2286	40.0321	125.934	70.8985	14.5867	99.6349	72.6939	31.6253	121.428	73.9876	59.4399	120.991	42.1701	22.0796	93.5165	53.2238	42.3504	121.104	59.1428	72.85	111.981	25.0279	37.2413	93.2907	41.9337	61.1802	120.335	42.0907	83.9834	109.188	15.4209	53.9303	99.115	28.5325	77.106	129.694	39.6112	90.3347	166.075	22.3216	66.1034	175.098	26.8231	105.756	175.998	56.0203	77.4574	
23	0.191667	175.579	90.3026	85.2733	150.421	104.76	59.995	132.006	101.986	38.9262	105.645	86.8965	25.7969	154.136	66.9751	11.4247	125.813	84.8708	21.1664	142.04	79.3202	52.4906	139.705	49.2901	15.955	112.774	68.0774	31.926	132.081	68.802	65.4649	121.357	36.7979	31.3043	105.183	57.3453	54.6221	132.687	54.5533	76.9508	112.79	26.1209	48.1446	106.056	46.842	64.2695	133.065	43.7734	87.0139	165.132	16.8127	68.5972	174.42	20.4526	107.967	188.394	47.8301	82.7358	
24	0.2	194.963	80.2449	82.3621	176.876	95.8023	53.7127	163.217	99.7455	27.8915	139.656	80.2484	10.1384	185.814	60.7705	7.48075	159.556	75.9395	12.2859	170.844	74.6523	46.6016	168.79	38.1225	12.0205	144.366	63.9139	18.2295	156.705	64.8248	58.1003	149.963	33.723	20.0409	131.815	54.357	37.6689	147.145	52.484	65.6175	138.432	19.9293	38.1906	129.688	45.447	53.9377	145.843	42.0829	77.7278	185.282	10.46	70.0592	183.932	15.9504	110.579	205.917	42.8779	86.1723	
